<svg version="1.1" id="Layer_1" xmlns="http://www.w3.org/2000/svg" xmlns:xlink="http://www.w3.org/1999/xlink" x="0px" y="0px" viewBox="0 0 500 500" style="width: 179px;" xml:space="preserve" data-imageid="python-6" imageName="Python" class="illustrations_image">
<style type="text/css">
	.st0_python-6{fill:#FFFFFF;}
	.st1_python-6{fill:#093F68;}
	.st2_python-6{fill:#DFEAEF;}
	.st3_python-6{fill:#68E1FD;}
	.st4_python-6{fill:#F56132;}
	.st5_python-6{fill:#FFBC0E;}
</style>
<g id="coding_python-6">
	<polygon class="st0_python-6" points="401.9,418.1 118.6,418.1 118.6,129.5 157.4,81.9 401.9,81.9 &#9;"/>
	<path class="st1_python-6" d="M401.9,420H118.6c-1.1,0-1.9-0.9-1.9-1.9l0,0V129.5c0-0.4,0.2-0.9,0.4-1.2l38.8-47.6c0.4-0.4,0.9-0.7,1.5-0.7&#10;&#9;&#9;h244.5c1.1,0,1.9,0.9,1.9,1.9v336.2C403.8,419.2,403,420,401.9,420z M120.5,416.2H400V83.8H158.3l-37.8,46.3L120.5,416.2z"/>
	<path class="st2_python-6" d="M206.1,141.4h-48.6c-2.6,0-4.8-2.1-4.8-4.8c0-2.6,2.1-4.8,4.8-4.8l0,0h48.6c2.6,0,4.8,2.1,4.8,4.8&#10;&#9;&#9;C210.8,139.3,208.7,141.4,206.1,141.4z"/>
	<path class="st2_python-6" d="M273.2,173.8h-99.8c-2.6,0.1-4.9-1.9-5-4.6c-0.1-2.6,1.9-4.9,4.6-5c0.1,0,0.3,0,0.4,0h99.8&#10;&#9;&#9;c2.6-0.1,4.9,1.9,5,4.6s-1.9,4.9-4.6,5C273.5,173.8,273.4,173.8,273.2,173.8L273.2,173.8z"/>
	<path class="st2_python-6" d="M248.5,206.2h-75.1c-2.6,0-4.8-2.1-4.8-4.8c0-2.6,2.1-4.8,4.8-4.8l0,0h75.1c2.6,0,4.8,2.1,4.8,4.8&#10;&#9;&#9;C253.2,204.1,251.1,206.2,248.5,206.2L248.5,206.2z"/>
	<path class="st2_python-6" d="M208.8,238.6h-43.1c-2.6,0-4.8-2.1-4.8-4.8c0-2.6,2.1-4.8,4.8-4.8l0,0h43.1c2.6,0,4.8,2.1,4.8,4.8&#10;&#9;&#9;C213.6,236.4,211.5,238.6,208.8,238.6z"/>
	<path class="st2_python-6" d="M226,271h-48.7c-2.6,0-4.8-2.2-4.8-4.8c0-2.6,2.1-4.8,4.8-4.8H226c2.6,0,4.8,2.2,4.8,4.8&#10;&#9;&#9;C230.8,268.9,228.6,271,226,271z"/>
	<path class="st2_python-6" d="M250.8,303.4h-75.1c-2.6,0-4.8-2.2-4.8-4.8c0-2.6,2.1-4.8,4.8-4.8h75.1c2.6,0,4.8,2.1,4.8,4.8&#10;&#9;&#9;S253.4,303.4,250.8,303.4C250.8,303.4,250.8,303.4,250.8,303.4z"/>
	<path class="st2_python-6" d="M193.9,335.8h-36.5c-2.6-0.1-4.7-2.4-4.6-5c0.1-2.5,2.1-4.5,4.6-4.6h36.5c2.6-0.1,4.9,1.9,5,4.6&#10;&#9;&#9;c0.1,2.6-1.9,4.9-4.6,5C194.2,335.8,194,335.8,193.9,335.8z"/>
	<path class="st2_python-6" d="M250.8,368.2h-79.9c-2.6,0-4.8-2.1-4.8-4.8s2.1-4.8,4.8-4.8c0,0,0,0,0,0h79.9c2.6,0,4.8,2.2,4.8,4.8&#10;&#9;&#9;C255.5,366,253.4,368.2,250.8,368.2z"/>
	<path class="st2_python-6" d="M327.3,368.2h-52.5c-2.6,0-4.8-2.2-4.8-4.8c0-2.6,2.1-4.8,4.8-4.8h52.5c2.6,0,4.8,2.2,4.8,4.8&#10;&#9;&#9;C332.1,366,330,368.2,327.3,368.2z"/>
	<path class="st2_python-6" d="M310.3,206.2h-37.1c-2.6,0-4.8-2.1-4.8-4.8c0-2.6,2.1-4.8,4.8-4.8l0,0h37.1c2.6,0,4.8,2.1,4.8,4.8&#10;&#9;&#9;C315.1,204.1,313,206.2,310.3,206.2z"/>
	<path class="st2_python-6" d="M363.1,173.8h-71.4c-2.6,0.1-4.9-1.9-5-4.6c-0.1-2.6,1.9-4.9,4.6-5c0.1,0,0.3,0,0.4,0h71.4&#10;&#9;&#9;c2.6-0.1,4.9,1.9,5,4.6s-1.9,4.9-4.6,5C363.4,173.8,363.3,173.8,363.1,173.8L363.1,173.8z"/>
	<path class="st2_python-6" d="M351.3,206.2h-20.9c-2.6,0-4.8-2.1-4.8-4.8c0-2.6,2.1-4.8,4.8-4.8h20.9c2.6,0,4.8,2.1,4.8,4.8&#10;&#9;&#9;C356.1,204.1,354,206.2,351.3,206.2z"/>
	<path class="st2_python-6" d="M261.2,271h-20.9c-2.6,0-4.8-2.1-4.8-4.8s2.1-4.8,4.8-4.8c0,0,0,0,0,0h20.9c2.6,0,4.8,2.1,4.8,4.8&#10;&#9;&#9;C266,268.8,263.9,271,261.2,271C261.2,271,261.2,271,261.2,271z"/>
	<path class="st2_python-6" d="M363.1,271h-84.8c-2.6,0-4.8-2.1-4.8-4.8c0-2.6,2.1-4.8,4.8-4.8c0,0,0,0,0,0h84.8c2.6,0,4.8,2.1,4.8,4.8&#10;&#9;&#9;C367.9,268.8,365.8,271,363.1,271C363.1,271,363.1,271,363.1,271z"/>
	<path class="st2_python-6" d="M291.8,303.4h-18.5c-2.6,0-4.8-2.2-4.8-4.8c0-2.6,2.1-4.8,4.8-4.8h18.5c2.6,0,4.8,2.1,4.8,4.8&#10;&#9;&#9;C296.6,301.2,294.4,303.4,291.8,303.4C291.8,303.4,291.8,303.4,291.8,303.4z"/>
	<path class="st2_python-6" d="M363.1,368.2h-11.8c-2.6,0-4.8-2.2-4.8-4.8c0-2.6,2.1-4.8,4.8-4.8h11.8c2.6,0,4.8,2.2,4.8,4.8&#10;&#9;&#9;C367.9,366,365.8,368.2,363.1,368.2z"/>
</g>
<g id="python_python-6">
	<path class="st3_python-6 targetColor" d="M287.1,106.3h128.5c2.7,0,4.8,2.2,4.8,4.8v66.8c0,2.7-2.2,4.8-4.8,4.8H287.1c-2.7,0-4.8-2.2-4.8-4.8v-66.8&#10;&#9;&#9;C282.2,108.5,284.4,106.3,287.1,106.3z" style="fill: rgb(104, 225, 253);"/>
	<path class="st1_python-6" d="M411.1,184.7H291.5c-6.2,0-11.2-5-11.2-11.2v-58c0-6.2,5-11.1,11.2-11.2h119.7c6.2,0,11.2,5,11.2,11.2v58&#10;&#9;&#9;C422.3,179.7,417.3,184.7,411.1,184.7L411.1,184.7z M291.5,108.2c-4,0-7.3,3.3-7.3,7.3v58c0,4,3.3,7.3,7.3,7.3h119.7&#10;&#9;&#9;c4,0,7.3-3.3,7.3-7.3v-58c0-4-3.3-7.3-7.3-7.3L291.5,108.2z"/>
	<path class="st1_python-6" d="M316.3,120.5h17.9c2.4,0,4.7,0.2,7.1,0.7c2.1,0.4,4,1.2,5.8,2.3c1.7,1.1,3,2.7,4,4.5c1.1,2.2,1.6,4.6,1.5,7.1&#10;&#9;&#9;c0.1,2.4-0.4,4.8-1.4,7.1c-0.8,1.8-2.1,3.4-3.7,4.6c-1.7,1.2-3.6,2-5.6,2.4c-2.3,0.5-4.7,0.7-7.1,0.7h-7.8v18.8h-10.6V120.5z&#10;&#9;&#9; M326.9,140.9h7.1c0.9,0,1.8-0.1,2.8-0.3c0.8-0.2,1.6-0.5,2.4-0.9c0.7-0.4,1.3-1,1.7-1.8c0.5-0.9,0.7-1.8,0.6-2.8&#10;&#9;&#9;c0.1-1.1-0.2-2.1-0.9-3c-0.6-0.7-1.3-1.3-2.2-1.7c-0.9-0.4-1.9-0.7-3-0.8c-1-0.1-2.1-0.2-3.1-0.2h-5.5V140.9z"/>
	<path class="st1_python-6" d="M370.9,148.1l-18.1-27.6H366l10.2,18l10.8-18h12.6l-18.1,27.6v20.5h-10.6V148.1z"/>
</g>
<g id="setting_python-6">
	<g id="ahcQ9Z_python-6">
		<path class="st4_python-6" d="M435.3,325.7c-0.1-2.9-2.1-5.3-4.9-5.9c-2.4-0.5-4.8-0.9-7.2-1.3c-0.7,0-1.2-0.5-1.4-1.2&#10;&#9;&#9;&#9;c-0.7-1.9-1.5-3.8-2.3-5.6c-0.3-0.5-0.2-1,0.1-1.4c1.4-2,2.9-4,4.2-6c1.6-2.4,1.4-5.5-0.5-7.7c-2.2-2.4-4.5-4.7-6.8-7&#10;&#9;&#9;&#9;c-2.4-2.7-6.4-3-9.2-0.8c-1.8,1.3-3.6,2.5-5.4,3.8c-0.4,0.3-1,0.4-1.4,0.1c-2-0.9-4-1.7-6.1-2.5c-0.5-0.1-0.9-0.6-0.9-1.1&#10;&#9;&#9;&#9;c-0.3-2.2-0.7-4.4-1.1-6.6c-0.5-3.2-3.1-5.6-6.3-5.7c-3.4-0.1-6.8-0.1-10.1,0c-3,0.1-5.5,2.1-6.1,5c-0.5,2.5-0.9,4.9-1.3,7.4&#10;&#9;&#9;&#9;c0,0.5-0.4,1-0.9,1.1c-2,0.8-3.9,1.6-5.9,2.5c-0.4,0.3-1,0.2-1.4-0.1c-2-1.4-3.9-2.9-5.9-4.2c-2.4-1.6-5.6-1.4-7.8,0.5&#10;&#9;&#9;&#9;c-2.6,2.4-5.1,4.8-7.5,7.4s-2.4,5.7-0.4,8.6c1.3,1.9,2.7,3.8,4,5.7c0.2,0.3,0.2,0.7,0.1,1c-0.8,2.1-1.7,4.2-2.6,6.3&#10;&#9;&#9;&#9;c-0.2,0.3-0.5,0.6-0.8,0.6c-2.2,0.4-4.4,0.8-6.6,1.1c-3.2,0.4-5.7,3-5.9,6.2c-0.1,3.5-0.1,7,0,10.6c0.1,2.8,2.1,5.2,4.9,5.9&#10;&#9;&#9;&#9;c2.5,0.6,5.1,0.9,7.6,1.4c0.5,0,0.9,0.4,1,0.9c0.8,2,1.6,4,2.5,6c0.2,0.4,0.2,0.9-0.1,1.3c-1.3,1.8-2.7,3.6-3.9,5.5&#10;&#9;&#9;&#9;c-2.1,2.7-1.7,6.6,0.8,8.9c2.1,2.2,4.2,4.3,6.4,6.4c2.4,2.6,6.4,2.9,9.1,0.7c1.8-1.3,3.7-2.6,5.5-3.9c0.3-0.3,0.8-0.3,1.2-0.1&#10;&#9;&#9;&#9;c1.9,0.8,3.8,1.6,5.7,2.3c0.6,0.2,1,0.7,1,1.3c0.3,2.2,0.7,4.3,1.1,6.5c0.4,3.1,2.9,5.5,6,5.7c3.5,0.1,7.1,0.1,10.7,0&#10;&#9;&#9;&#9;c2.9-0.2,5.3-2.2,5.9-5c0.5-2.4,0.9-4.8,1.3-7.2c0-0.6,0.4-1.1,1-1.3c2-0.8,3.9-1.6,5.9-2.4c0.4-0.2,0.9-0.2,1.3,0.1&#10;&#9;&#9;&#9;c1.8,1.3,3.7,2.6,5.5,3.9c1.3,0.9,2.8,1.4,4.4,1.3c1.5,0,2.9-0.6,3.9-1.6c2.3-2.2,4.6-4.5,6.8-6.7c2.7-2.4,3.1-6.5,0.8-9.3&#10;&#9;&#9;&#9;c-1.2-1.8-2.5-3.6-3.8-5.4c-0.3-0.4-0.4-0.9-0.1-1.3c0.9-2,1.7-4,2.5-6c0.2-0.5,0.6-0.9,1.1-0.9c2.2-0.3,4.4-0.7,6.6-1.1&#10;&#9;&#9;&#9;c3.2-0.4,5.6-3.1,5.7-6.3C435.4,332.6,435.4,329.2,435.3,325.7z M381.1,354.3c-12.9,0-23.3-10.5-23.3-23.4s10.5-23.3,23.4-23.3&#10;&#9;&#9;&#9;c12.9,0,23.3,10.5,23.3,23.4C404.5,343.9,394,354.4,381.1,354.3C381.1,354.3,381.1,354.3,381.1,354.3L381.1,354.3z"/>
		<path class="st1_python-6" d="M381.3,356.3h-0.2c-6.8,0-13.3-2.8-18.1-7.7c-4.7-4.7-7.3-11.1-7.2-17.8c0.1-13.9,11.4-25.2,25.4-25.3l0,0&#10;&#9;&#9;&#9;c14,0,25.4,11.3,25.4,25.3S395.3,356.3,381.3,356.3L381.3,356.3z M381.1,352.3h0.2c5.6,0,10.9-2.2,14.8-6.1&#10;&#9;&#9;&#9;c4.1-4,6.4-9.5,6.4-15.2c0-5.6-2.2-11-6.2-15c-4-4.1-9.5-6.4-15.2-6.4l0,0c-11.8,0-21.3,9.4-21.4,21.2c0,0,0,0.1,0,0.1&#10;&#9;&#9;&#9;c-0.1,5.6,2.1,11,6,14.9C369.8,350,375.4,352.4,381.1,352.3L381.1,352.3z"/>
		<path class="st1_python-6" d="M381,387.2c-1.8,0-3.6,0-5.3-0.1c-4.1-0.2-7.4-3.3-8-7.3c-0.4-2.1-0.7-4.2-1-6.4c-1.8-0.7-3.6-1.4-5.2-2.1&#10;&#9;&#9;&#9;c-1.8,1.3-3.5,2.5-5.1,3.6c-3.5,2.8-8.6,2.4-11.6-0.9c-2.1-2-4.2-4.1-6.4-6.4c-3.2-3-3.6-7.9-1-11.4c1.2-1.8,2.5-3.5,3.7-5.2&#10;&#9;&#9;&#9;c-0.9-2-1.6-3.7-2.3-5.4l-1.4-0.2c-2-0.3-4-0.7-6-1.1c-3.6-0.8-6.3-4-6.4-7.8c-0.1-3.8-0.1-7.3,0-10.7c0.2-4.2,3.4-7.6,7.5-8.1&#10;&#9;&#9;&#9;c2-0.3,4-0.6,6-1c0.8-1.8,1.5-3.6,2.2-5.4c-0.6-0.9-1.3-1.8-1.9-2.7s-1.2-1.7-1.8-2.5c-2.6-3.8-2.4-7.9,0.6-11.1&#10;&#9;&#9;&#9;c2.3-2.5,4.8-4.9,7.6-7.5c2.8-2.5,7-2.8,10.2-0.7c2,1.3,3.9,2.7,5.7,4c2-0.9,3.7-1.6,5.4-2.3l0.2-1.1c0.3-2,0.7-4.1,1.1-6.1&#10;&#9;&#9;&#9;c0.8-3.8,4.1-6.5,8-6.6c3.5-0.1,6.9-0.1,10.2,0c4.2,0.1,7.6,3.2,8.3,7.3c0.4,2.1,0.7,4.2,1,6.3c1.9,0.7,3.8,1.5,5.7,2.3&#10;&#9;&#9;&#9;c1.6-1.1,3.3-2.3,5.1-3.6c3.6-2.7,8.7-2.3,11.7,1.1l1.7,1.7c1.7,1.7,3.5,3.5,5.2,5.3c2.5,2.8,2.8,6.9,0.8,10.1&#10;&#9;&#9;&#9;c-1.2,1.9-2.5,3.6-3.8,5.4l-0.3,0.5c0.9,2.1,1.6,3.8,2.2,5.4c2.6,0.4,4.9,0.8,7.2,1.3c3.7,0.8,6.4,4,6.5,7.8&#10;&#9;&#9;&#9;c0.1,3.7,0.1,7.1,0,10.5c-0.2,4.2-3.3,7.6-7.4,8.2c-2.1,0.4-4.2,0.7-6.3,1c-0.7,1.7-1.4,3.5-2.2,5.4c1.2,1.6,2.4,3.3,3.6,5&#10;&#9;&#9;&#9;c2.8,3.6,2.4,8.8-1,11.9l-1.2,1.2c-1.8,1.8-3.7,3.7-5.6,5.5c-1.4,1.4-3.3,2.1-5.3,2.1c-2,0.1-4-0.5-5.6-1.7l-2.2-1.6&#10;&#9;&#9;&#9;c-1-0.7-2-1.4-2.9-2.1c-2,0.9-3.8,1.6-5.4,2.2l-0.2,1c-0.3,2-0.7,4.1-1.1,6.1c-0.8,3.7-4,6.4-7.8,6.5&#10;&#9;&#9;&#9;C384.6,387.2,382.8,387.2,381,387.2z M361.4,367.2c0.5,0,0.9,0.1,1.4,0.3c1.7,0.7,3.6,1.6,5.5,2.3c1.3,0.4,2.2,1.6,2.3,2.9&#10;&#9;&#9;&#9;c0.3,2.1,0.7,4.3,1.1,6.4c0.3,2.2,2,3.8,4.1,4c3.3,0.1,6.8,0.1,10.5,0c1.9-0.1,3.6-1.5,4-3.4c0.4-2,0.8-4,1.1-5.9l0.2-1.2&#10;&#9;&#9;&#9;c0.2-1.3,1-2.4,2.3-2.8c1.7-0.7,3.6-1.4,5.8-2.4c1.1-0.5,2.3-0.4,3.3,0.4c1.1,0.8,2.1,1.5,3.2,2.3l2.2,1.6c0.9,0.7,2.1,1.1,3.2,1&#10;&#9;&#9;&#9;c1,0,1.9-0.4,2.6-1.1c1.9-1.8,3.8-3.6,5.6-5.5l1.2-1.2c2-1.7,2.3-4.7,0.6-6.7c0,0,0,0,0,0c-1.3-1.9-2.5-3.6-3.8-5.3&#10;&#9;&#9;&#9;c-0.7-0.9-0.9-2.2-0.4-3.3c0.9-2.1,1.7-4,2.4-5.9c0.4-1.2,1.5-2,2.7-2.2c2.2-0.3,4.4-0.7,6.5-1.1c2.2-0.3,4-2.1,4.1-4.4&#10;&#9;&#9;&#9;c0.1-3.3,0.1-6.6,0-10.3l0,0c-0.1-1.9-1.4-3.6-3.3-4c-2.3-0.5-4.5-0.9-7-1.2c-1.4-0.2-2.6-1.1-3-2.5c-0.6-1.6-1.3-3.4-2.3-5.5&#10;&#9;&#9;&#9;c-0.6-1.1-0.4-2.5,0.3-3.4l0.5-0.8c1.2-1.7,2.5-3.4,3.6-5.2c1.1-1.6,1-3.8-0.4-5.2c-1.6-1.8-3.3-3.5-5-5.2L415,291&#10;&#9;&#9;&#9;c-1.7-2-4.6-2.3-6.6-0.6c-2,1.4-3.7,2.6-5.3,3.8c-1,0.8-2.3,0.9-3.4,0.4c-2-0.9-4-1.7-6-2.5c-1.2-0.4-2-1.4-2.2-2.7&#10;&#9;&#9;&#9;c-0.3-2.2-0.7-4.4-1.1-6.5c-0.3-2.2-2.2-3.9-4.4-4c-3.2-0.1-6.6-0.1-10,0c-2,0-3.8,1.5-4.2,3.5c-0.4,1.9-0.8,3.9-1.1,5.9l-0.2,1.5&#10;&#9;&#9;&#9;c-0.2,1.2-1,2.3-2.2,2.6c-1.8,0.7-3.7,1.5-5.8,2.5c-1.1,0.6-2.4,0.4-3.4-0.3l-0.3-0.2c-1.8-1.3-3.7-2.7-5.6-4&#10;&#9;&#9;&#9;c-1.6-1.1-3.8-1-5.3,0.3c-2.7,2.5-5.1,4.9-7.3,7.2s-1.3,4.6-0.2,6.1c0.6,0.9,1.2,1.7,1.8,2.5c0.8,1,1.5,2.1,2.2,3.2&#10;&#9;&#9;&#9;c0.6,0.8,0.7,1.9,0.3,2.9c-0.8,2.1-1.7,4.3-2.6,6.4c-0.4,0.9-1.3,1.6-2.3,1.8c-2.2,0.4-4.4,0.8-6.6,1.1c-2.3,0.2-4,2-4.2,4.3&#10;&#9;&#9;&#9;c-0.1,3.3-0.1,6.8,0,10.5c0.1,1.9,1.4,3.5,3.3,4c1.9,0.4,3.9,0.8,5.8,1.1l1.7,0.3c1.2,0.2,2.2,1,2.6,2.1c0.7,1.8,1.5,3.6,2.5,5.9&#10;&#9;&#9;&#9;c0.5,1.1,0.4,2.3-0.3,3.3c-1.5,2-2.7,3.7-3.9,5.4c-1.5,1.9-1.3,4.7,0.5,6.4c2.2,2.3,4.3,4.4,6.4,6.4s4.2,2.1,6.6,0.5&#10;&#9;&#9;&#9;c1.7-1.2,3.6-2.5,5.5-3.9C360.1,367.4,360.7,367.2,361.4,367.2L361.4,367.2z M339.1,316.7L339.1,316.7z"/>
	</g>
	<path class="st5_python-6" d="M332.9,256.7c-0.1-2.2-1.6-4-3.7-4.5c-1.8-0.4-3.6-0.7-5.4-1c-0.5,0-0.9-0.4-1.1-0.9c-0.5-1.4-1.1-2.9-1.8-4.3&#10;&#9;&#9;c-0.2-0.3-0.2-0.8,0.1-1.1c1.1-1.5,2.2-3,3.2-4.6c1.2-1.8,1-4.2-0.4-5.8c-1.7-1.8-3.5-3.5-5.2-5.3c-1.8-2-4.8-2.3-7-0.6&#10;&#9;&#9;c-1.4,1-2.7,1.9-4.1,2.9c-0.3,0.3-0.7,0.3-1.1,0.1c-1.5-0.7-3.1-1.3-4.7-1.9c-0.4-0.1-0.7-0.4-0.7-0.9c-0.2-1.7-0.5-3.3-0.8-5&#10;&#9;&#9;c-0.3-2.4-2.4-4.2-4.8-4.3c-2.6-0.1-5.1-0.1-7.7,0c-2.2,0-4.2,1.6-4.6,3.8c-0.4,1.9-0.7,3.8-1,5.6c0,0.4-0.3,0.7-0.7,0.8&#10;&#9;&#9;c-1.5,0.6-3,1.2-4.5,1.9c-0.3,0.2-0.7,0.1-1-0.1c-1.5-1.1-3-2.2-4.5-3.2c-1.8-1.2-4.2-1.1-5.9,0.4c-2,1.8-3.9,3.6-5.6,5.6&#10;&#9;&#9;c-1.8,1.8-1.9,4.6-0.3,6.6c1,1.4,2,2.9,3,4.3c0.1,0.2,0.2,0.5,0.1,0.8c-0.6,1.6-1.3,3.2-1.9,4.8c-0.1,0.2-0.3,0.4-0.6,0.5&#10;&#9;&#9;c-1.6,0.3-3.3,0.6-5,0.9c-2.4,0.3-4.3,2.2-4.4,4.7c-0.1,2.7-0.1,5.4,0,8c0.1,2.1,1.6,4,3.7,4.5c1.9,0.4,3.8,0.7,5.8,1&#10;&#9;&#9;c0.4,0,0.7,0.3,0.8,0.7c0.6,1.5,1.2,3,1.9,4.5c0.2,0.3,0.2,0.7-0.1,1c-1,1.4-2,2.8-3,4.2c-1.6,2.1-1.3,5,0.6,6.7&#10;&#9;&#9;c1.6,1.6,3.2,3.3,4.9,4.9c1.8,2,4.8,2.2,6.9,0.5c1.4-1,2.8-2,4.2-3c0.3-0.2,0.6-0.3,0.9-0.1c1.4,0.6,2.8,1.2,4.3,1.8&#10;&#9;&#9;c0.4,0.1,0.8,0.5,0.8,1c0.3,1.6,0.5,3.3,0.8,4.9c0.3,2.3,2.2,4.1,4.6,4.3c2.7,0.1,5.4,0.1,8.1,0c2.2-0.1,4-1.6,4.5-3.8&#10;&#9;&#9;c0.4-1.8,0.7-3.7,1-5.5c0-0.4,0.3-0.8,0.8-1c1.5-0.6,3-1.2,4.5-1.9c0.3-0.2,0.7-0.2,1,0.1c1.4,1,2.8,2,4.2,3c1,0.7,2.2,1.1,3.4,1&#10;&#9;&#9;c1.1,0,2.2-0.4,3-1.2c1.8-1.7,3.5-3.4,5.2-5.1c2.1-1.8,2.4-4.9,0.6-7.1c-0.9-1.4-1.9-2.7-2.9-4.1c-0.3-0.3-0.3-0.7-0.1-1&#10;&#9;&#9;c0.7-1.5,1.3-3,1.9-4.5c0.1-0.4,0.5-0.6,0.9-0.7c1.7-0.3,3.3-0.5,5-0.8c2.4-0.3,4.3-2.3,4.4-4.8&#10;&#9;&#9;C332.9,261.9,332.9,259.3,332.9,256.7z M291.8,278.4c-9.8,0-17.7-8-17.7-17.8c0-9.8,8-17.7,17.8-17.7c9.8,0,17.7,8,17.7,17.8&#10;&#9;&#9;C309.5,270.5,301.6,278.4,291.8,278.4C291.8,278.4,291.8,278.4,291.8,278.4z"/>
	<path class="st1_python-6" d="M291.9,280.4h-0.2c-5.3,0-10.4-2.2-14.1-6c-3.6-3.7-5.7-8.7-5.6-13.8c0.1-10.8,8.9-19.6,19.7-19.7l0,0&#10;&#9;&#9;c10.9,0,19.7,8.8,19.7,19.7c0,5.3-2.1,10.4-5.9,14.1C302,278.4,297,280.4,291.9,280.4z M291.8,276.4c4.1,0,8.1-1.6,11-4.5&#10;&#9;&#9;c3-3,4.7-7,4.7-11.2c0-4.1-1.6-8.1-4.5-11.1c-2.9-3-7-4.7-11.2-4.7l0,0c-8.7,0-15.7,7-15.7,15.6c0,0,0,0.1,0,0.1&#10;&#9;&#9;c-0.1,4.1,1.6,8.1,4.5,11C283.5,274.7,287.6,276.4,291.8,276.4L291.8,276.4z"/>
	<path class="st1_python-6" d="M291.7,303.8c-1.4,0-2.7,0-4-0.1c-3.3-0.2-6-2.7-6.5-6c-0.3-1.5-0.5-3-0.8-4.6c-1.2-0.5-2.4-0.9-3.4-1.4&#10;&#9;&#9;c-1.2,0.9-2.5,1.8-3.7,2.6c-2.9,2.3-7,1.9-9.5-0.7c-1.6-1.5-3.2-3.2-4.9-4.9c-2.6-2.4-2.9-6.4-0.8-9.3c0.8-1.2,1.7-2.4,2.7-3.7&#10;&#9;&#9;c-0.6-1.3-1.1-2.5-1.5-3.6l-0.7-0.1c-1.5-0.2-3.1-0.5-4.6-0.9c-3-0.7-5.1-3.3-5.2-6.4c-0.1-2.8-0.1-5.6,0-8.1&#10;&#9;&#9;c0.2-3.4,2.8-6.2,6.1-6.6c1.4-0.2,2.9-0.5,4.3-0.7c0.5-1.2,1-2.4,1.5-3.6c-0.4-0.6-0.9-1.2-1.3-1.8s-0.9-1.3-1.4-1.9&#10;&#9;&#9;c-2.1-2.7-1.9-6.6,0.5-9.1c1.7-1.9,3.6-3.7,5.8-5.7c2.3-2.1,5.8-2.3,8.3-0.6c1.4,0.9,2.8,1.9,4.1,2.9c1.3-0.6,2.5-1.1,3.6-1.5&#10;&#9;&#9;l0.1-0.6c0.2-1.5,0.5-3.1,0.9-4.7c0.7-3.1,3.4-5.3,6.6-5.4c2.6-0.1,5.2-0.1,7.8,0c3.4,0.1,6.2,2.6,6.7,6c0.3,1.5,0.5,3,0.8,4.5&#10;&#9;&#9;c1.3,0.5,2.5,1,3.8,1.6c1.2-0.9,2.4-1.8,3.7-2.6c2.9-2.2,7-1.8,9.5,0.9l1.3,1.3c1.3,1.3,2.7,2.7,4,4.1c2,2.3,2.3,5.7,0.6,8.2&#10;&#9;&#9;c-0.9,1.4-1.9,2.8-2.9,4.1l-0.1,0.1c0.6,1.4,1.1,2.5,1.5,3.6c1.8,0.3,3.5,0.6,5.2,0.9c3,0.7,5.2,3.3,5.3,6.4l0,0&#10;&#9;&#9;c0.1,2.8,0.1,5.4,0,8c-0.1,3.4-2.6,6.2-6,6.7c-1.5,0.3-3,0.5-4.5,0.8c-0.5,1.1-0.9,2.3-1.5,3.6c0.9,1.2,1.7,2.4,2.6,3.6&#10;&#9;&#9;c2.3,2.9,1.9,7.1-0.9,9.6l-1,1c-1.4,1.4-2.8,2.8-4.3,4.2c-1.2,1.1-2.7,1.7-4.3,1.8c-1.6,0.1-3.2-0.4-4.6-1.4l-1.7-1.2&#10;&#9;&#9;c-0.7-0.5-1.3-0.9-2-1.4c-1.3,0.6-2.5,1.1-3.6,1.5l-0.1,0.5c-0.2,1.5-0.5,3.1-0.8,4.7c-0.7,3-3.3,5.2-6.4,5.3&#10;&#9;&#9;C294.4,303.8,293,303.8,291.7,303.8z M276.8,287.7c0.4,0,0.8,0.1,1.2,0.3c1.4,0.6,2.8,1.2,4.2,1.7c1.1,0.4,2,1.4,2.1,2.6&#10;&#9;&#9;c0.2,1.6,0.5,3.2,0.8,4.9c0.2,1.4,1.3,2.5,2.7,2.6c2.5,0.1,5.1,0.1,8,0c1.2-0.1,2.3-1,2.6-2.2c0.3-1.5,0.6-3,0.8-4.5l0.1-0.9&#10;&#9;&#9;c0.1-1.1,0.9-2.1,2-2.5c1.3-0.5,2.7-1.1,4.4-1.8c1-0.5,2.1-0.4,3,0.3c0.8,0.6,1.6,1.2,2.4,1.7l1.7,1.2c0.6,0.5,1.4,0.7,2.2,0.6&#10;&#9;&#9;c0.6,0,1.2-0.2,1.6-0.7c1.4-1.3,2.8-2.7,4.2-4.1l1-1c1.4-1.1,1.6-3.1,0.5-4.4c0,0,0-0.1-0.1-0.1c-0.9-1.3-1.9-2.7-2.9-4&#10;&#9;&#9;c-0.6-0.8-0.8-2-0.3-3c0.7-1.6,1.3-3,1.8-4.5c0.4-1,1.3-1.8,2.4-1.9c1.6-0.2,3.3-0.5,5-0.8c1.5-0.2,2.6-1.4,2.7-2.9&#10;&#9;&#9;c0.1-2.5,0.1-5,0-7.8l0,0c-0.1-1.2-0.9-2.3-2.1-2.6c-1.7-0.4-3.4-0.6-5.3-0.9c-1.2-0.1-2.3-1-2.6-2.2c-0.5-1.2-1-2.6-1.7-4.2&#10;&#9;&#9;c-0.5-1-0.4-2.2,0.3-3.1l0.4-0.6c0.9-1.3,1.9-2.6,2.7-3.9c0.7-1,0.6-2.5-0.2-3.4c-1.2-1.3-2.5-2.6-3.8-3.9l-1.3-1.3&#10;&#9;&#9;c-1.1-1.3-3-1.5-4.4-0.4c0,0,0,0,0,0c-1.4,0.9-2.7,1.9-4,2.9c-0.9,0.7-2.1,0.8-3.1,0.3c-1.5-0.7-3.1-1.3-4.6-1.9&#10;&#9;&#9;c-1.1-0.3-1.9-1.3-2-2.4c-0.3-1.6-0.5-3.3-0.8-4.9c-0.2-1.5-1.4-2.6-2.9-2.7c-2.5-0.1-5-0.1-7.6,0c-1.3,0-2.5,1-2.7,2.2&#10;&#9;&#9;c-0.3,1.4-0.6,2.9-0.8,4.4l-0.2,1.1c-0.1,1.1-0.9,2-2,2.4c-1.3,0.5-2.8,1.1-4.4,1.9c-1,0.5-2.1,0.4-3-0.3l-0.2-0.1&#10;&#9;&#9;c-1.4-1-2.8-2.1-4.2-3c-1.1-0.7-2.5-0.6-3.4,0.2c-2.1,1.9-3.9,3.7-5.5,5.5c-1.1,1.1-1.2,2.9-0.2,4.1c0.4,0.6,0.9,1.3,1.4,1.9&#10;&#9;&#9;c0.6,0.8,1.1,1.6,1.7,2.4c0.5,0.8,0.6,1.7,0.3,2.6c-0.6,1.7-1.3,3.3-2,4.9c-0.4,0.9-1.2,1.5-2.1,1.7c-1.7,0.3-3.3,0.6-5,0.9&#10;&#9;&#9;c-1.5,0.1-2.6,1.3-2.8,2.8c-0.1,2.5-0.1,5.1,0,7.9c0.1,1.2,0.9,2.3,2.1,2.6c1.4,0.3,2.9,0.6,4.4,0.8l1.3,0.2c1.1,0.1,2,0.9,2.3,1.9&#10;&#9;&#9;c0.5,1.4,1.1,2.8,1.9,4.4c0.5,1,0.4,2.1-0.3,3c-1.1,1.5-2,2.8-3,4.1c-1,1.3-0.9,3.1,0.4,4.2c1.6,1.7,3.3,3.3,4.8,4.8&#10;&#9;&#9;c1.1,1.3,3,1.4,4.3,0.3c0,0,0,0,0,0c1.4-1,2.8-1.9,4.1-2.9C275.7,287.9,276.2,287.7,276.8,287.7z M259.8,249.4L259.8,249.4z"/>
</g>
<g id="snack_python-6">
	<path class="st3_python-6 targetColor" d="M120.3,397v-61.2h74.8v-65.4c0-20.2-14.9-36.6-33.3-36.6h-18.7c-18.4,0-33.3,16.4-33.3,36.6v12.3H92.6&#10;&#9;&#9;c-14.3,0-26,12.8-26,28.6v57.1c0,15.8,11.6,28.6,26,28.6L120.3,397z" style="fill: rgb(104, 225, 253);"/>
	<path class="st1_python-6" d="M120.3,399H92.6c-15.4,0-27.9-13.7-27.9-30.5v-57.1c0-16.8,12.5-30.5,27.9-30.5H108v-10.4&#10;&#9;&#9;c0-21.3,15.8-38.6,35.2-38.6h18.7c19.4,0,35.2,17.3,35.2,38.6v65.4c0,1.1-0.9,1.9-1.9,1.9h0h-72.9V397&#10;&#9;&#9;C122.3,398.1,121.5,399,120.3,399C120.4,399,120.4,399,120.3,399z M92.6,284.7c-13.3,0-24.1,12-24.1,26.7v57.1&#10;&#9;&#9;c0,14.7,10.8,26.7,24.1,26.7h25.9v-59.3c0-1.1,0.9-1.9,1.9-1.9h0h72.9v-63.5c0-19.1-14.1-34.7-31.4-34.7h-18.7&#10;&#9;&#9;c-17.3,0-31.4,15.6-31.4,34.7v12.3c0,1.1-0.8,1.9-1.9,1.9c0,0,0,0,0,0H92.6z"/>
	<circle class="st1_python-6" cx="134.9" cy="262.3" r="6.1"/>
	<path class="st1_python-6" d="M159.8,284.7h-49.9c-1.1,0.1-2-0.7-2.1-1.8s0.7-2,1.8-2.1c0.1,0,0.2,0,0.3,0h49.9c1.1,0.1,1.9,1,1.8,2.1&#10;&#9;&#9;C161.5,283.9,160.8,284.6,159.8,284.7z"/>
</g>
</svg>